<svg width="28" height="29" viewBox="0 0 28 29" fill="none" xmlns="http://www.w3.org/2000/svg">
<path d="M18.5719 11.1303L9.50427 18.5121C9.32412 18.6659 9.26407 18.9734 9.44422 19.158C9.5343 19.281 9.6544 19.3425 9.80453 19.3425C9.8946 19.3425 10.0147 19.3118 10.0748 19.2503L19.1424 11.8685C19.3225 11.7147 19.3826 11.4071 19.2024 11.2226C19.0523 11.0073 18.7821 10.9765 18.5719 11.1303Z" fill="#333333"/>
<path d="M11.9366 14.421C12.0567 14.421 12.1768 14.421 12.2969 14.3903C13.5279 14.2057 14.3987 13.0062 14.1885 11.7144C14.0984 11.0992 13.7681 10.5456 13.2877 10.1765C12.8073 9.8074 12.2068 9.65361 11.6063 9.74588C11.0058 9.83816 10.4654 10.1765 10.1051 10.6686C9.74477 11.1607 9.59464 11.7759 9.68471 12.391C9.86487 13.5906 10.8557 14.421 11.9366 14.421ZM11.7264 10.6994C11.7865 10.6994 11.8766 10.6686 11.9366 10.6686C12.5972 10.6686 13.1977 11.1607 13.2877 11.8681C13.4078 12.6371 12.8974 13.3445 12.1468 13.4675C11.3962 13.5906 10.7056 13.0677 10.5855 12.2987C10.4654 11.5298 11.0058 10.8224 11.7264 10.6994Z" fill="#333333"/>
<path d="M16.7409 15.959C15.4798 15.959 14.459 17.0047 14.459 18.2966C14.459 19.5884 15.4798 20.6341 16.7409 20.6341C18.002 20.6341 19.0228 19.5884 19.0228 18.2966C18.9928 17.0047 17.9719 15.959 16.7409 15.959ZM16.7409 19.6806C15.9903 19.6806 15.3597 19.0347 15.3597 18.2658C15.3597 17.4969 15.9903 16.851 16.7409 16.851C17.4915 16.851 18.1221 17.4969 18.1221 18.2658C18.092 19.0655 17.4915 19.6806 16.7409 19.6806Z" fill="#333333"/>
<path d="M27.9699 14.8823C27.9699 14.8515 27.9999 14.79 27.9999 14.7593C27.9999 13.4367 26.6488 12.76 25.4778 12.1756C24.6371 11.745 23.7363 11.2837 23.4961 10.73C23.2559 10.1457 23.5862 9.19218 23.9165 8.30021C24.3669 7.03916 24.8172 5.74735 23.9765 4.88614C23.1358 4.02493 21.9348 4.33251 20.7338 4.60932C19.8931 4.79387 19.0224 5.00917 18.4519 4.76311C17.8814 4.51705 17.401 3.74812 16.9506 3.00994C16.2901 1.96419 15.5695 0.764648 14.3084 0.764648C13.0474 0.764648 12.3268 1.96419 11.6962 3.0407C11.2459 3.80963 10.7955 4.57857 10.225 4.82463C9.65453 5.07068 8.75377 4.85538 7.91307 4.64008C6.71206 4.33251 5.48103 4.02493 4.67035 4.85538C3.82964 5.71659 4.25 7.0084 4.64032 8.26945C4.94057 9.19218 5.2108 10.1149 4.9706 10.73C4.7304 11.3144 3.88969 11.745 3.07901 12.1756C1.93806 12.7908 0.646973 13.4675 0.646973 14.7593C0.646973 14.79 0.646973 14.8515 0.676998 14.8823C0.676998 14.9131 0.646973 14.9746 0.646973 15.0053C0.646973 16.2971 1.93806 17.0046 3.07901 17.5889C3.88969 18.0195 4.7304 18.4502 4.9706 19.0345C5.2108 19.6189 4.91055 20.5724 4.64032 21.4951C4.25 22.7562 3.82964 24.048 4.67035 24.9092C5.51105 25.7704 6.74209 25.4321 7.91307 25.1245C8.75377 24.9092 9.65453 24.6939 10.225 24.94C10.7955 25.186 11.2459 25.955 11.6962 26.7239C12.3268 27.8004 13.0474 28.9999 14.3084 28.9999C15.5695 28.9999 16.3201 27.8004 16.9506 26.7547C17.401 26.0165 17.8814 25.2475 18.4519 25.0015C19.0524 24.7554 19.8931 24.94 20.7338 25.1553C21.9048 25.4321 23.1358 25.7397 23.9765 24.8785C24.8172 24.0172 24.3669 22.7254 23.9165 21.4644C23.5862 20.5417 23.2559 19.6189 23.4961 19.0345C23.7363 18.4502 24.6071 18.0195 25.4778 17.5889C26.6488 16.9738 27.9999 16.2971 27.9999 15.0053C27.9999 14.9438 27.9699 14.9131 27.9699 14.8823ZM25.0574 16.7585C24.0666 17.2814 23.0157 17.8042 22.6554 18.6962C22.2651 19.6189 22.6855 20.7262 23.0458 21.8027C23.4061 22.8177 23.7664 23.8019 23.316 24.2325C22.8356 24.7247 21.9048 24.5094 20.914 24.2633C19.9231 24.0172 18.9323 23.8019 18.0616 24.171C17.2209 24.5401 16.6804 25.4013 16.17 26.2625C15.5995 27.1853 15.0591 28.0772 14.2784 28.0772C13.5278 28.0772 12.9873 27.1853 12.4168 26.2318C11.9064 25.3398 11.366 24.4478 10.5253 24.0788C9.65453 23.7097 8.63367 23.9557 7.64284 24.2325C6.65201 24.4786 5.72123 24.7247 5.24083 24.2633C4.79045 23.8019 5.0907 22.8177 5.42098 21.8027C5.75125 20.7262 6.11156 19.6189 5.72123 18.727C5.36093 17.835 4.3701 17.3121 3.40929 16.82C2.41846 16.2971 1.48768 15.805 1.48768 15.0361C1.48768 15.0053 1.48768 14.9438 1.45765 14.9131C1.45765 14.8823 1.48768 14.8208 1.48768 14.79C1.48768 14.0518 2.41846 13.5597 3.40929 13.0061C4.3701 12.514 5.36093 11.9911 5.72123 11.0991C6.08153 10.1764 5.75125 9.06915 5.42098 8.0234C5.0907 6.97764 4.79045 5.99341 5.24083 5.5628C5.72123 5.07068 6.65201 5.31674 7.64284 5.59356C8.63367 5.83962 9.65453 6.11644 10.5253 5.74735C11.366 5.37826 11.9064 4.48629 12.4168 3.59433C12.9873 2.64085 13.4978 1.74889 14.2784 1.74889C15.0591 1.74889 15.5995 2.64085 16.17 3.56357C16.7104 4.42478 17.2509 5.28599 18.0616 5.65507C18.9323 6.02416 19.9231 5.7781 20.914 5.5628C21.9048 5.31674 22.8356 5.10144 23.316 5.59356C23.7664 6.02416 23.4061 7.0084 23.0458 8.0234C22.6554 9.0999 22.2651 10.2072 22.6554 11.1299C23.0157 12.0219 24.0666 12.5447 25.0574 13.0676C26.1083 13.5905 27.0691 14.1134 27.0691 14.8515C27.0691 14.8823 27.0691 14.9438 27.0992 14.9746C27.0992 15.0053 27.0691 15.0668 27.0691 15.0976C27.0992 15.7127 26.1083 16.2356 25.0574 16.7585Z" fill="#333333"/>
</svg>
