<svg xmlns="http://www.w3.org/2000/svg" viewBox="12113 177 181 118"><defs><style>.a,.b,.c,.d,.f,.i{fill:#f3601e;}.b,.c{font-size:20px;}.b{font-family:Roboto-Regular, Roboto;}.c,.d{font-family:Roboto-Light, Roboto;font-weight:300;}.d{font-size:14px;}.e{fill:#fff;}.f{font-size:23px;font-family:SchadowBT-Roman, Schadow BT;}.g,.j{fill:none;}.g{stroke:#f3601e;stroke-width:2px;opacity:0.54;}.h,.i{stroke:none;}</style></defs><g transform="translate(12015)"><g transform="translate(0 20)"><rect class="a" width="145" height="2" transform="translate(114 273)"/><path class="a" d="M1,0H11a0,0,0,0,1,0,0V2a0,0,0,0,1,0,0H1A1,1,0,0,1,0,1V1A1,1,0,0,1,1,0Z" transform="translate(98 273)"/><rect class="a" width="8" height="2" transform="translate(263 273)"/><path class="a" d="M0,0H4A1,1,0,0,1,5,1V1A1,1,0,0,1,4,2H0A0,0,0,0,1,0,2V0A0,0,0,0,1,0,0Z" transform="translate(274 273)"/></g><g transform="translate(-6 20)"><rect class="a" width="16" height="2" transform="translate(152 257)"/><rect class="a" width="10" height="2" transform="translate(139 257)"/><rect class="a" width="6" height="2" transform="translate(130 257)"/></g><path class="a" d="M74.5,91.761a5.893,5.893,0,0,1-4.891-9.185H40.874a5.9,5.9,0,1,1-9.764-.027,6.7,6.7,0,0,1-5.955-5.341L15.438,28.8l0-.009L13.752,20.27a5.312,5.312,0,0,0-5.183-4.213H1.3a1.3,1.3,0,0,1,0-2.607H8.569a7.932,7.932,0,0,1,7.738,6.3l1.48,7.487H88.7a1.3,1.3,0,0,1,1.28,1.55l-1.92,9.97c0,.016-.006.031-.009.046l-2,10.362c0,.019-.007.038-.011.057L82.116,69.6a1.3,1.3,0,0,1-1.28,1.057H26.5L27.711,76.7a4.087,4.087,0,0,0,4,3.274H74.5a5.9,5.9,0,1,1,0,11.792Zm0-9.185a3.289,3.289,0,1,0,3.289,3.289A3.293,3.293,0,0,0,74.5,82.576Zm-38.516,0a3.289,3.289,0,1,0,3.289,3.289A3.293,3.293,0,0,0,35.983,82.576ZM74.519,68.051h5.241l1.422-7.385h-6.27Zm-13.465,0H71.908l.393-7.385H61.211Zm-13.477,0H58.446l.157-7.385H47.419Zm-13.462,0H44.968l-.157-7.385H33.721Zm-8.006,0h5.4l-.393-7.385H24.6ZM75.051,58.06h6.633l1.5-7.806H75.466Zm-13.784,0H72.44l.416-7.806H61.433Zm-13.9,0h11.3l.166-7.806H47.2Zm-13.781,0H44.756l-.166-7.806H33.167Zm-9.513,0h6.9l-.416-7.806H22.476ZM75.605,47.646H83.69l1.5-7.806H76.02Zm-14.117,0H72.994l.416-7.806H61.655Zm-14.347,0H58.88l.166-7.806H46.975Zm-14.114,0H44.534l-.166-7.806H32.613Zm-11.084,0h8.473L30,39.84H20.351ZM76.159,37.233H85.7l1.422-7.385H76.553Zm-14.449,0H73.548l.393-7.385H61.867Zm-14.79,0H59.1l.157-7.385h-12.5Zm-14.446,0H44.312l-.157-7.385H32.081Zm-12.655,0H29.863l-.393-7.385H18.312Z" transform="translate(143 201.55)"/><text class="b" transform="matrix(0.848, 0.53, -0.53, 0.848, 110.761, 251.784)"><tspan x="-5.674" y="0">+</tspan></text><text class="c" transform="matrix(0.848, 0.53, -0.53, 0.848, 256.761, 274.784)"><tspan x="-5.645" y="0">+</tspan></text><text class="d" transform="matrix(0.848, 0.53, -0.53, 0.848, 216.761, 200.784)"><tspan x="-3.951" y="0">+</tspan></text><g transform="translate(-53 3)"><g class="e" transform="translate(274 215)"><path class="h" d="M 14 27.5 C 10.39402008056641 27.5 7.003870010375977 26.09576034545898 4.454060077667236 23.54594039916992 C 1.904240012168884 20.99612998962402 0.5 17.60597991943359 0.5 14 C 0.5 10.39402008056641 1.904240012168884 7.003870010375977 4.454060077667236 4.454060077667236 C 7.003870010375977 1.904240012168884 10.39402008056641 0.5 14 0.5 C 17.60597991943359 0.5 20.99612998962402 1.904240012168884 23.54594039916992 4.454060077667236 C 26.09576034545898 7.003870010375977 27.5 10.39402008056641 27.5 14 C 27.5 17.60597991943359 26.09576034545898 20.99612998962402 23.54594039916992 23.54594039916992 C 20.99612998962402 26.09576034545898 17.60597991943359 27.5 14 27.5 Z"/><path class="i" d="M 14 27 C 17.4724292755127 27 20.73700904846191 25.64776039123535 23.19239044189453 23.19239044189453 C 25.64776039123535 20.73700904846191 27 17.4724292755127 27 14 C 27 10.52756977081299 25.64776039123535 7.26298999786377 23.19239044189453 4.807610034942627 C 20.73700904846191 2.352240085601807 17.4724292755127 1 14 1 C 10.52756977081299 1 7.26298999786377 2.352240085601807 4.807610034942627 4.807610034942627 C 2.352240085601807 7.26298999786377 1 10.52756977081299 1 14 C 1 17.4724292755127 2.352240085601807 20.73700904846191 4.807610034942627 23.19239044189453 C 7.26298999786377 25.64776039123535 10.52756977081299 27 14 27 M 14 28 C 6.268010139465332 28 -1.77635683940025e-15 21.73199081420898 -1.77635683940025e-15 14 C -1.77635683940025e-15 6.268010139465332 6.268010139465332 -1.77635683940025e-15 14 -1.77635683940025e-15 C 21.73199081420898 -1.77635683940025e-15 28 6.268010139465332 28 14 C 28 21.73199081420898 21.73199081420898 28 14 28 Z"/></g><text class="f" transform="translate(288 237)"><tspan x="-3.667" y="0">!</tspan></text></g><g class="g" transform="translate(156 177)"><circle class="h" cx="5" cy="5" r="5"/><circle class="j" cx="5" cy="5" r="4"/></g></g></svg>